<mxfile host="65bd71144e">
    <diagram id="9jA-nTwY3zNywtV1iH90" name="PÃ¡gina-1">
        <mxGraphModel dx="5269" dy="4139" grid="1" gridSize="10" guides="1" tooltips="1" connect="1" arrows="1" fold="1" page="1" pageScale="1" pageWidth="1654" pageHeight="1169" background="#666666" math="0" shadow="0">
            <root>
                <mxCell id="0"/>
                <mxCell id="1" parent="0"/>
                <mxCell id="2" value="&lt;p style=&quot;text-align: center ; margin: 4px 0px 0px&quot;&gt;&lt;b&gt;&lt;font style=&quot;font-size: 21px&quot;&gt;Equation&lt;/font&gt;&lt;/b&gt;&lt;/p&gt;&lt;hr size=&quot;1&quot;&gt;&lt;p style=&quot;margin: 0px 0px 0px 4px ; font-size: 17px&quot;&gt;&lt;font style=&quot;font-size: 17px&quot;&gt;&lt;b&gt;- coefficient: Matrix&lt;/b&gt;&lt;/font&gt;&lt;/p&gt;&lt;p style=&quot;margin: 0px 0px 0px 4px ; font-size: 17px&quot;&gt;&lt;font style=&quot;font-size: 17px&quot;&gt;&lt;b&gt;- independentElements: Vector&lt;/b&gt;&lt;/font&gt;&lt;/p&gt;&lt;p style=&quot;margin: 0px 0px 0px 4px ; font-size: 17px&quot;&gt;&lt;font style=&quot;font-size: 17px&quot;&gt;&lt;b&gt;- results: Vector&lt;/b&gt;&lt;/font&gt;&lt;/p&gt;&lt;hr size=&quot;1&quot;&gt;&lt;p style=&quot;margin: 0px ; margin-left: 4px&quot;&gt;&lt;font size=&quot;3&quot;&gt;&lt;b&gt;+ isSolvable(): bool&lt;/b&gt;&lt;/font&gt;&lt;/p&gt;&lt;p style=&quot;margin: 0px ; margin-left: 4px&quot;&gt;&lt;font size=&quot;3&quot;&gt;&lt;b&gt;+ getResultsAtIndex(index: int): double&amp;nbsp; &quot;throws exception&quot;&lt;/b&gt;&lt;/font&gt;&lt;/p&gt;&lt;p style=&quot;margin: 0px ; margin-left: 4px&quot;&gt;&lt;font size=&quot;3&quot;&gt;&lt;b&gt;+ solve(): bool&lt;/b&gt;&lt;/font&gt;&lt;/p&gt;&lt;p style=&quot;margin: 0px ; margin-left: 4px&quot;&gt;&lt;font size=&quot;3&quot;&gt;&lt;b&gt;+ getResultingVector(): Vector&amp;nbsp; &quot;throws exception&quot;&lt;/b&gt;&lt;/font&gt;&lt;/p&gt;&lt;p style=&quot;margin: 0px ; margin-left: 4px&quot;&gt;&lt;font size=&quot;3&quot;&gt;&lt;b&gt;+ print(): void&lt;/b&gt;&lt;/font&gt;&lt;/p&gt;" style="verticalAlign=top;align=left;overflow=fill;fontSize=12;fontFamily=Helvetica;html=1;gradientDirection=west;rounded=0;glass=0;shadow=1;strokeWidth=1;fillColor=#fff2cc;strokeColor=#d6b656;fontColor=#1A1A1A;" parent="1" vertex="1">
                    <mxGeometry x="-740" y="-530" width="450" height="280" as="geometry"/>
                </mxCell>
                <mxCell id="6" style="edgeStyle=none;html=1;entryX=0.002;entryY=0.382;entryDx=0;entryDy=0;entryPerimeter=0;fontSize=21;fontColor=#1A1A1A;endArrow=diamondThin;endFill=1;endSize=25;strokeWidth=2;fillColor=#fff2cc;strokeColor=#d6b656;rounded=0;" parent="1" source="3" target="2" edge="1">
                    <mxGeometry relative="1" as="geometry"/>
                </mxCell>
                <mxCell id="3" value="&lt;p style=&quot;text-align: center ; margin: 4px 0px 0px&quot;&gt;&lt;b&gt;&lt;font style=&quot;font-size: 21px&quot;&gt;Matrix&lt;/font&gt;&lt;/b&gt;&lt;/p&gt;&lt;hr size=&quot;1&quot;&gt;&lt;p style=&quot;margin: 0px 0px 0px 4px ; font-size: 17px&quot;&gt;&lt;b&gt;- innerRepresentation: double[][]&lt;/b&gt;&lt;/p&gt;&lt;p style=&quot;margin: 0px 0px 0px 4px ; font-size: 17px&quot;&gt;&lt;b&gt;- lines: int&lt;/b&gt;&lt;br&gt;&lt;/p&gt;&lt;p style=&quot;margin: 0px 0px 0px 4px ; font-size: 17px&quot;&gt;&lt;b&gt;- cols: int&lt;/b&gt;&lt;/p&gt;&lt;hr size=&quot;1&quot;&gt;&lt;p style=&quot;margin: 0px ; margin-left: 4px&quot;&gt;&lt;font size=&quot;3&quot;&gt;&lt;b&gt;+ get(line: int, col: int): double &quot;throws exception&quot;&lt;/b&gt;&lt;/font&gt;&lt;/p&gt;&lt;p style=&quot;margin: 0px ; margin-left: 4px&quot;&gt;&lt;font size=&quot;3&quot;&gt;&lt;b&gt;+ getLine(line: int): Vector &quot;throws exception&quot;&lt;/b&gt;&lt;/font&gt;&lt;/p&gt;&lt;p style=&quot;margin: 0px ; margin-left: 4px&quot;&gt;&lt;font size=&quot;3&quot;&gt;&lt;b&gt;+ getCol(col: int): Vector &quot;throws exception&quot;&lt;/b&gt;&lt;/font&gt;&lt;/p&gt;&lt;p style=&quot;margin: 0px ; margin-left: 4px&quot;&gt;&lt;font size=&quot;3&quot;&gt;&lt;b&gt;+ getSubMatrix(lineToEliminate: int, colToEliminate: int): Matrix&lt;/b&gt;&lt;/font&gt;&lt;/p&gt;&lt;p style=&quot;margin: 0px ; margin-left: 4px&quot;&gt;&lt;font size=&quot;3&quot;&gt;&lt;b&gt;&lt;span style=&quot;white-space: pre&quot;&gt;&#9;&lt;/span&gt;&quot;throws exception&quot;&lt;br&gt;&lt;/b&gt;&lt;/font&gt;&lt;/p&gt;&lt;p style=&quot;margin: 0px ; margin-left: 4px&quot;&gt;&lt;font size=&quot;3&quot;&gt;&lt;b&gt;+ set(line: int, col: int, value: double): void &quot;throws exception&quot;&lt;/b&gt;&lt;/font&gt;&lt;/p&gt;&lt;p style=&quot;margin: 0px ; margin-left: 4px&quot;&gt;&lt;font size=&quot;3&quot;&gt;&lt;b&gt;+ setLine(line: int, vec: Vector): void &quot;throws exception&quot;&lt;/b&gt;&lt;/font&gt;&lt;/p&gt;&lt;p style=&quot;margin: 0px ; margin-left: 4px&quot;&gt;&lt;font size=&quot;3&quot;&gt;&lt;b&gt;+ setCol(col: int, vec: Vector): void &quot;throws exception&quot;&lt;/b&gt;&lt;/font&gt;&lt;/p&gt;&lt;p style=&quot;margin: 0px ; margin-left: 4px&quot;&gt;&lt;font size=&quot;3&quot;&gt;&lt;b&gt;+ det(): double&lt;/b&gt;&lt;/font&gt;&lt;/p&gt;&lt;p style=&quot;margin: 0px ; margin-left: 4px&quot;&gt;&lt;font size=&quot;3&quot;&gt;&lt;b&gt;+ Matrix(values: double[][])&lt;/b&gt;&lt;/font&gt;&lt;/p&gt;&lt;p style=&quot;margin: 0px ; margin-left: 4px&quot;&gt;&lt;font size=&quot;3&quot;&gt;&lt;b&gt;+ Matrix(int size) &quot;only square matrix are allowed in public&quot;&lt;/b&gt;&lt;/font&gt;&lt;/p&gt;&lt;p style=&quot;margin: 0px ; margin-left: 4px&quot;&gt;&lt;font size=&quot;3&quot;&gt;&lt;b&gt;- Matrix(int lines, int cols)&lt;/b&gt;&lt;/font&gt;&lt;/p&gt;" style="verticalAlign=top;align=left;overflow=fill;fontSize=12;fontFamily=Helvetica;html=1;gradientDirection=west;rounded=0;glass=0;shadow=1;strokeWidth=1;fillColor=#fff2cc;strokeColor=#d6b656;fontColor=#1A1A1A;" parent="1" vertex="1">
                    <mxGeometry x="-1370" y="-600" width="490" height="350" as="geometry"/>
                </mxCell>
                <mxCell id="5" style="edgeStyle=none;html=1;entryX=0.377;entryY=-0.005;entryDx=0;entryDy=0;fontSize=21;fontColor=#1A1A1A;endArrow=diamondThin;endFill=1;endSize=25;entryPerimeter=0;strokeWidth=2;fillColor=#fff2cc;strokeColor=#d6b656;rounded=0;" parent="1" source="4" target="2" edge="1">
                    <mxGeometry relative="1" as="geometry"/>
                </mxCell>
                <mxCell id="7" style="edgeStyle=none;html=1;entryX=0.443;entryY=-0.009;entryDx=0;entryDy=0;entryPerimeter=0;fontSize=21;fontColor=#1A1A1A;endArrow=none;endFill=0;endSize=25;strokeWidth=2;fillColor=#fff2cc;strokeColor=#d6b656;rounded=0;" parent="1" source="4" target="3" edge="1">
                    <mxGeometry relative="1" as="geometry">
                        <Array as="points">
                            <mxPoint x="-1153" y="-890"/>
                        </Array>
                    </mxGeometry>
                </mxCell>
                <mxCell id="4" value="&lt;p style=&quot;text-align: center ; margin: 4px 0px 0px&quot;&gt;&lt;b&gt;&lt;font style=&quot;font-size: 21px&quot;&gt;Vector&lt;/font&gt;&lt;/b&gt;&lt;/p&gt;&lt;hr size=&quot;1&quot;&gt;&lt;p style=&quot;margin: 0px 0px 0px 4px ; font-size: 17px&quot;&gt;&lt;font style=&quot;font-size: 17px&quot;&gt;&lt;b&gt;- innerRepresentation: double[]&lt;/b&gt;&lt;/font&gt;&lt;/p&gt;&lt;p style=&quot;margin: 0px 0px 0px 4px ; font-size: 17px&quot;&gt;&lt;b&gt;+ nElements: int&lt;/b&gt;&lt;/p&gt;&lt;hr size=&quot;1&quot;&gt;&lt;p style=&quot;margin: 0px ; margin-left: 4px&quot;&gt;&lt;font size=&quot;3&quot;&gt;&lt;b&gt;+ get(index: int): double &quot;throws exception&quot;&amp;nbsp;&lt;/b&gt;&lt;/font&gt;&lt;/p&gt;&lt;p style=&quot;margin: 0px ; margin-left: 4px&quot;&gt;&lt;font size=&quot;3&quot;&gt;&lt;b&gt;+ set(index: int, value: double): void&amp;nbsp; &quot;throws exception&quot;&lt;/b&gt;&lt;/font&gt;&lt;/p&gt;&lt;p style=&quot;margin: 0px ; margin-left: 4px&quot;&gt;&lt;font size=&quot;3&quot;&gt;&lt;b&gt;+ solve(): bool&lt;/b&gt;&lt;/font&gt;&lt;/p&gt;" style="verticalAlign=top;align=left;overflow=fill;fontSize=12;fontFamily=Helvetica;html=1;gradientDirection=west;rounded=0;glass=0;shadow=1;strokeWidth=1;fillColor=#fff2cc;strokeColor=#d6b656;fontColor=#1A1A1A;" parent="1" vertex="1">
                    <mxGeometry x="-790" y="-990" width="440" height="200" as="geometry"/>
                </mxCell>
            </root>
        </mxGraphModel>
    </diagram>
</mxfile>